<svg width="48" height="48" viewBox="0 0 48 48" fill="none" xmlns="http://www.w3.org/2000/svg">
<rect width="48" height="48" rx="5" fill="#D7A10D"/>
<path d="M31 10.4C32.1733 11.7867 32.76 12.6133 32.76 12.88C32.76 13.1467 32.6267 13.44 32.36 13.76C31.1067 15.1733 29.64 16.6 27.96 18.04C27.5867 18.36 27.3067 18.52 27.12 18.52C26.8533 18.52 26.72 18.32 26.72 17.92C26.72 17.4933 26.8933 16.9333 27.24 16.24C27.6133 15.5467 27.8 15.1467 27.8 15.04C27.8 14.9333 27.7467 14.88 27.64 14.88C27.56 14.88 27.44 14.9067 27.28 14.96C24.2133 16.0533 22.08 17.7733 20.88 20.12C20.6133 20.6533 20.48 21.0933 20.48 21.44C20.48 22.1333 21.0133 22.7867 22.08 23.4C22.24 23.5067 22.96 23.8933 24.24 24.56C26.8267 25.9467 28.4533 27.0667 29.12 27.92C30.1867 29.2533 30.72 30.56 30.72 31.84C30.72 32.3467 30.5733 32.88 30.28 33.44C30.0133 33.9733 29.6667 34.3733 29.24 34.64C24.7333 37.44 20.72 38.84 17.2 38.84C15.3333 38.84 14.4 37.9867 14.4 36.28C14.4 35.72 14.5867 35.1867 14.96 34.68C14.32 34.2267 14 33.7467 14 33.24C14 32.7067 14.36 32.1733 15.08 31.64C16.7867 30.36 19.5333 29.72 23.32 29.72C23.72 29.72 24.2 29.8667 24.76 30.16C25.32 30.4267 25.7733 30.72 26.12 31.04C26.7867 30.6667 27.12 30.3333 27.12 30.04C27.12 29.7467 26.9467 29.4533 26.6 29.16C26.0933 28.7867 25.1467 28.2933 23.76 27.68C22.4 27.0667 21.5333 26.6533 21.16 26.44C20.04 25.8 19.1733 24.88 18.56 23.68C17.9733 22.48 17.68 21.2133 17.68 19.88C17.68 18.52 18.0133 17.2933 18.68 16.2C19.3733 15.08 20.3333 14.1067 21.56 13.28C23.4267 12.0267 25.76 10.88 28.56 9.84C28.9333 9.73333 29.2267 9.68 29.44 9.68C30.0533 9.68 30.5733 9.92 31 10.4ZM23.4 32.56C23.1333 32.5067 22.8267 32.48 22.48 32.48C22.1333 32.48 21.4533 32.64 20.44 32.96C19.4533 33.28 18.96 33.64 18.96 34.04C18.96 34.2 19.0533 34.28 19.24 34.28C19.96 34.28 21.3467 33.7067 23.4 32.56Z" fill="white"/>
</svg>
