<svg width="48" height="48" viewBox="0 0 48 48" fill="none" xmlns="http://www.w3.org/2000/svg">
<rect width="48" height="48" rx="5" fill="#980CBC"/>
<path d="M14.336 38.808C13.824 38.808 13.4507 38.6907 13.216 38.456C12.9813 38.2213 12.864 37.848 12.864 37.336V33.592C12.864 33.3147 12.896 33.08 12.96 32.888C13.0453 32.696 13.1627 32.536 13.312 32.408L16.512 29.72C15.3813 29.3787 14.4853 28.8027 13.824 27.992C13.184 27.16 12.864 25.976 12.864 24.44V21.08C12.864 20.12 13.024 19.2667 13.344 18.52C13.664 17.7733 14.1227 17.144 14.72 16.632L18.88 13.144C19.456 12.6747 20.1707 12.312 21.024 12.056C21.8773 11.7787 22.848 11.64 23.936 11.64H32.896C33.408 11.64 33.7813 11.7573 34.016 11.992C34.2507 12.2267 34.368 12.6 34.368 13.112V16.92C34.368 17.1973 34.3253 17.432 34.24 17.624C34.176 17.816 34.0693 17.976 33.92 18.104L31.04 20.504C32.384 20.8027 33.4613 21.368 34.272 22.2C35.104 23.0107 35.52 24.28 35.52 26.008V29.368C35.52 30.328 35.36 31.1813 35.04 31.928C34.72 32.6747 34.2507 33.304 33.632 33.816L29.504 37.272C28.9067 37.7627 28.1813 38.136 27.328 38.392C26.4747 38.6693 25.5147 38.808 24.448 38.808H14.336ZM28.576 35C30.624 35 32.2347 34.52 33.408 33.56C34.6027 32.5787 35.2 31.1813 35.2 29.368V26.008C35.2 24.216 34.7413 22.936 33.824 22.168C32.9067 21.4 31.7013 20.9093 30.208 20.696L25.44 20.056C25.1627 20.0347 24.9493 19.928 24.8 19.736C24.6507 19.544 24.576 19.3093 24.576 19.032C24.576 18.7547 24.6507 18.5307 24.8 18.36C24.9493 18.168 25.1627 18.072 25.44 18.072H32.896C33.3013 18.072 33.5893 17.9867 33.76 17.816C33.952 17.624 34.048 17.3253 34.048 16.92V13.112C34.048 12.7067 33.952 12.4187 33.76 12.248C33.5893 12.056 33.3013 11.96 32.896 11.96H23.936C21.8667 11.96 20.2453 12.4507 19.072 13.432C17.8987 14.392 17.312 15.7787 17.312 17.592V20.952C17.312 22.744 17.76 24.024 18.656 24.792C19.5733 25.56 20.7787 26.0507 22.272 26.264L27.072 26.936C27.3493 26.9573 27.552 27.0533 27.68 27.224C27.8293 27.3947 27.904 27.6613 27.904 28.024C27.904 28.28 27.8293 28.504 27.68 28.696C27.552 28.8667 27.3493 28.952 27.072 28.952H18.464C18.0587 28.952 17.76 29.048 17.568 29.24C17.3973 29.4107 17.312 29.6987 17.312 30.104V33.848C17.312 34.2533 17.3973 34.552 17.568 34.744C17.76 34.9147 18.0587 35 18.464 35H28.576ZM31.168 14.84V15.16H24.064C23.168 15.16 22.4533 15.4053 21.92 15.896C21.3867 16.3867 21.12 17.0053 21.12 17.752V20.376C21.12 21.1227 21.2693 21.6453 21.568 21.944C21.8667 22.2427 22.2613 22.4347 22.752 22.52L29.504 23.896C30.144 24.024 30.6667 24.3013 31.072 24.728C31.4987 25.1547 31.712 25.9227 31.712 27.032V28.888C31.712 29.8267 31.392 30.6053 30.752 31.224C30.112 31.8213 29.248 32.12 28.16 32.12H20.192V31.8H28.16C29.1413 31.8 29.92 31.5333 30.496 31C31.0933 30.4453 31.392 29.7413 31.392 28.888V27.032C31.392 26.0293 31.2107 25.3467 30.848 24.984C30.5067 24.6 30.0373 24.344 29.44 24.216L22.688 22.84C22.1333 22.7333 21.6747 22.52 21.312 22.2C20.9707 21.8587 20.8 21.2507 20.8 20.376V17.752C20.8 16.8987 21.0987 16.2053 21.696 15.672C22.2933 15.1173 23.0827 14.84 24.064 14.84H31.168Z" fill="white"/>
</svg>
